<svg t="1742353436576" class="icon" viewBox="0 0 1024 1024" version="1.1" xmlns="http://www.w3.org/2000/svg" p-id="1572" width="200" height="200">
<path d="M1024.001679 512.005037A511.996642 511.996642 0 1 1 511.996642 0a512.005037 512.005037 0 0 1 512.005037 512.005037z" fill="#F1F2F3" p-id="1573"></path><path d="M170.662749 255.998321h682.667786v512.005037H170.662749z" fill="#475059" p-id="1574"></path><path d="M196.2651 281.592277h631.463085v460.80873H196.2651z" fill="#ADEBF6" p-id="1575"></path><path d="M196.2651 281.592277h631.463085v102.401008H196.2651z" fill="#FFDB7A" p-id="1576"></path><path d="M221.859056 307.203022h580.275173v51.196306H221.859056z" fill="#FFFFFF" p-id="1577"></path><path d="M750.937922 307.203022h51.204701v51.196306h-51.204701zM225.560904 466.583949h224.713088v27.197251h-224.713088zM225.560904 578.587936h224.713088v27.205645h-224.713088zM225.560904 410.594546h117.829571v27.197251H225.560904zM375.380822 410.594546h74.89317v27.197251h-74.89317zM225.560904 522.590139h117.829571v27.205646H225.560904zM375.380822 522.590139h74.89317v27.205646h-74.89317zM225.560904 634.585732H321.918078v27.205646H225.560904zM353.916819 634.585732h96.357173v27.205646H353.916819zM225.560904 690.591923H321.918078v27.197251H225.560904zM353.916819 690.591923h96.357173v27.197251H353.916819z" fill="#E25D34" p-id="1578"></path><path d="M768.271973 536.188765a128.137665 128.137665 0 1 1-128.137666-128.137665 128.137665 128.137665 0 0 1 128.137666 128.137665z" fill="#FFFFFF" p-id="1579"></path><path d="M614.741812 581.139777l-67.094946-34.701678v-19.222748l67.094946-34.550582v22.639193l-46.806133 21.279331 46.806133 22.076781zM620.945136 596.392062l24.234094-120.406594h14.085489l-24.502708 120.406594zM665.468043 581.215325v-22.462915l46.864892-21.925685-46.864892-21.682253v-22.328607l67.1621 34.558976v19.054864zM827.728185 677.790748h-71.367601v-25.28337l-66.30589 38.286006 66.30589 38.302795v-25.711475h71.367601v-25.593956z" fill="#475059" p-id="1580"></path>
</svg>
