<svg width="860" height="860" xmlns="http://www.w3.org/2000/svg" class="icon">
  <g>
    <title>background</title>
    <rect x="-1" y="-1" width="862" height="862" id="canvas_background" fill="none" />
  </g>

  <g>
    <title>Layer 1</title>
    <path
      d="m125.6,173l608.8,0a53.76,53.76 0 0 1 53.76,53.76l0,421.42l-716.32,0l0,-421.42a53.76,53.76 0 0 1 53.76,-53.76z"
      fill="#495057"
      id="svg_1"
    />
    <path d="m125.56,232.52l608.88,0l0,396.28l-608.88,0l0,-396.28z" fill="#343A40" id="svg_2" />
    <path
      d="m9.16,628.8l841.68,0a7.16,7.16 0 0 1 7.16,7.2l0,14a43,43 0 0 1 -43,43l-770,0a43,43 0 0 1 -43,-43l0,-14a7.16,7.16 0 0 1 7.16,-7.16l0,-0.04z"
      fill="#495057"
      id="svg_3"
      stroke="null"
    />
    <path
      d="m361.4,628.44l137.2,0l0,3.12a28.6,28.6 0 0 1 -28.6,28.6l-80,0a28.6,28.6 0 0 1 -28.6,-28.6l0,-3.12zm-235.84,-395.92l608.88,0l0,36.44l-608.88,0l0,-36.44z"
      fill="#868E96"
      id="svg_4"
    />
    <path d="m144.04,250.74a8.46,8.46 0 1 0 16.92,0a8.46,8.46 0 1 0 -16.92,0z" fill="#FC7070" id="svg_5" />
    <path d="m171.1,250.74a8.46,8.46 0 1 0 16.92,0a8.46,8.46 0 1 0 -16.92,0z" fill="#F7BE1C" id="svg_6" />
    <path d="m198.16,250.74a8.46,8.46 0 1 0 16.92,0a8.46,8.46 0 1 0 -16.92,0z" fill="#82C91E" id="svg_7" />
    <path
      stroke="null"
      id="svg_8"
      fill="#4E49EE"
      d="m276.515416,388.552736c0,-10.953766 10.901019,-17.705365 37.327199,-17.705365l-8.791144,48.47437c-16.369111,-10.953766 -28.553637,-21.081164 -28.553637,-30.769005l0.017582,0zm70.452231,119.682639c0,11.375741 -11.322994,18.971289 -37.327199,20.219632l9.213119,-51.410612c16.369111,10.971348 28.131662,20.659189 28.131662,31.19098l-0.017582,0zm-46.153508,105.353074l7.982359,-47.612838c63.348986,-5.907649 88.087267,-31.612955 88.087267,-59.850111c0,-29.063523 -35.234907,-51.832587 -67.533571,-71.630244l11.744969,-62.381961c13.432868,1.265925 29.362422,3.797774 48.245801,7.595549l5.450509,-43.410671c-14.241654,-2.109875 -27.692105,-2.953825 -40.263441,-3.797774l9.670259,-46.346913l-41.546949,-0.421975l-7.964777,47.190863c-63.348986,5.063699 -88.104849,31.612955 -88.104849,59.850111c0,28.659131 35.234907,50.566662 67.533571,69.52037l-11.744969,65.335785c-15.103186,-0.84395 -33.547007,-3.375799 -54.944652,-7.173574l-8.404334,43.410671c18.039428,2.109875 34.812932,3.375799 49.9337,3.797774l-9.230702,45.502963l41.089809,0.421975zm273.457337,-33.300855l46.997458,0c5.872485,-49.300737 14.241654,-148.746163 19.709746,-261.272811l-44.887583,0c-1.248342,26.549256 -5.872485,184.578867 -7.560384,197.642508l-1.248342,0c-11.322994,-42.549139 -20.553695,-77.115918 -31.87669,-119.243082l-25.599812,0c-10.901019,42.127164 -18.461403,73.740119 -29.784397,119.243082l-1.6879,0c-1.248342,-13.06364 -8.386752,-171.075669 -9.230702,-197.624925l-46.5579,0c5.45051,112.509066 13.415286,211.954491 19.287771,261.27281l46.153508,0l32.316247,-125.185895l33.968982,125.168313z"
    />
  </g>
</svg>
